<svg width="46" height="42" viewBox="0 0 46 42" fill="none" xmlns="http://www.w3.org/2000/svg">
<path d="M14.6111 33.6665C16.36 33.6665 17.7778 35.0843 17.7778 36.8332C17.7778 38.582 16.36 39.9998 14.6111 39.9998C12.8622 39.9998 11.4445 38.582 11.4445 36.8332C11.4445 35.0843 12.8622 33.6665 14.6111 33.6665Z" stroke="white" stroke-width="4"/>
<path d="M33.611 33.6667C35.3598 33.6667 36.7776 35.0844 36.7776 36.8334C36.7776 38.5822 35.3598 40 33.611 40C31.8621 40 30.4443 38.5822 30.4443 36.8334C30.4443 35.0844 31.8621 33.6667 33.611 33.6667Z" stroke="white" stroke-width="4"/>
<path d="M3 2L3.55144 2.19388C6.29922 3.15994 7.67313 3.64298 8.45896 4.79294C9.2448 5.94292 9.2448 7.4704 9.2448 10.5254V16.271C9.2448 22.481 9.3783 24.5303 11.2074 26.4596C13.0364 28.3887 15.9802 28.3887 21.8679 28.3887H24.111M33.0629 28.3887C36.3583 28.3887 38.006 28.3887 39.1707 27.4396C40.3354 26.4904 40.6681 24.8767 41.3333 21.649L42.3884 16.5302C43.1212 12.8588 43.4875 11.0232 42.5504 9.8049C41.6132 8.58663 38.4111 8.58662 34.8539 8.58662H22.0495M9.2448 8.58662H13.5555" stroke="white" stroke-width="4" stroke-linecap="round"/>
</svg>
