<svg width="229" height="64" viewBox="0 0 229 64" fill="none" xmlns="http://www.w3.org/2000/svg">
<path d="M88.25 41H83.7614V26.4545H88.4489C89.8598 26.4545 91.0672 26.7457 92.071 27.3281C93.0748 27.9058 93.8442 28.7367 94.3793 29.821C94.9143 30.9006 95.1818 32.1932 95.1818 33.6989C95.1818 35.214 94.9119 36.5185 94.3722 37.6122C93.8324 38.7012 93.0464 39.5393 92.0142 40.1264C90.982 40.7088 89.7273 41 88.25 41ZM85.5227 39.4375H88.1364C89.339 39.4375 90.3357 39.2055 91.1264 38.7415C91.9171 38.2775 92.5066 37.617 92.8949 36.7599C93.2831 35.9029 93.4773 34.8826 93.4773 33.6989C93.4773 32.5246 93.2855 31.5137 92.902 30.6662C92.5185 29.8139 91.9455 29.1605 91.1832 28.706C90.4209 28.2467 89.4716 28.017 88.3352 28.017H85.5227V39.4375ZM97.9091 41V30.0909H99.5852V41H97.9091ZM98.7614 28.2727C98.4347 28.2727 98.1529 28.1615 97.9162 27.9389C97.6842 27.7164 97.5682 27.4489 97.5682 27.1364C97.5682 26.8239 97.6842 26.5563 97.9162 26.3338C98.1529 26.1113 98.4347 26 98.7614 26C99.0881 26 99.3674 26.1113 99.5994 26.3338C99.8362 26.5563 99.9545 26.8239 99.9545 27.1364C99.9545 27.4489 99.8362 27.7164 99.5994 27.9389C99.3674 28.1615 99.0881 28.2727 98.7614 28.2727ZM102.655 41V30.0909H104.275V31.7955H104.417C104.644 31.2131 105.011 30.7609 105.517 30.4389C106.024 30.1122 106.632 29.9489 107.343 29.9489C108.062 29.9489 108.661 30.1122 109.14 30.4389C109.623 30.7609 109.999 31.2131 110.269 31.7955H110.382C110.662 31.232 111.081 30.7846 111.64 30.4531C112.198 30.117 112.868 29.9489 113.65 29.9489C114.625 29.9489 115.423 30.2543 116.043 30.8651C116.663 31.4711 116.973 32.4157 116.973 33.6989V41H115.297V33.6989C115.297 32.8939 115.077 32.3187 114.637 31.973C114.196 31.6274 113.678 31.4545 113.081 31.4545C112.314 31.4545 111.72 31.6866 111.299 32.1506C110.877 32.6098 110.667 33.1922 110.667 33.8977V41H108.962V33.5284C108.962 32.9081 108.761 32.4086 108.358 32.0298C107.956 31.6463 107.437 31.4545 106.803 31.4545C106.367 31.4545 105.96 31.5705 105.581 31.8026C105.207 32.0346 104.904 32.3565 104.672 32.7685C104.445 33.1757 104.331 33.6468 104.331 34.1818V41H102.655ZM120.265 41V26.4545H129.044V28.017H122.027V32.9318H128.589V34.4943H122.027V39.4375H129.157V41H120.265ZM133.667 26.4545V41H131.991V26.4545H133.667ZM141.311 41.2273C140.26 41.2273 139.353 40.9953 138.591 40.5312C137.833 40.0625 137.249 39.4091 136.837 38.571C136.429 37.7282 136.226 36.7481 136.226 35.6307C136.226 34.5133 136.429 33.5284 136.837 32.6761C137.249 31.8191 137.821 31.1515 138.555 30.6733C139.294 30.1903 140.156 29.9489 141.141 29.9489C141.709 29.9489 142.27 30.0436 142.824 30.233C143.378 30.4223 143.882 30.7301 144.337 31.1562C144.791 31.5777 145.153 32.1364 145.423 32.8324C145.693 33.5284 145.828 34.3854 145.828 35.4034V36.1136H137.419V34.6648H144.124C144.124 34.0492 144 33.5 143.754 33.017C143.513 32.5341 143.167 32.1529 142.717 31.8736C142.272 31.5942 141.747 31.4545 141.141 31.4545C140.473 31.4545 139.895 31.6203 139.408 31.9517C138.925 32.2784 138.553 32.7045 138.293 33.2301C138.032 33.7557 137.902 34.3191 137.902 34.9205V35.8864C137.902 36.7102 138.044 37.4086 138.328 37.9815C138.617 38.5497 139.017 38.983 139.528 39.2812C140.04 39.5748 140.634 39.7216 141.311 39.7216C141.751 39.7216 142.149 39.66 142.504 39.5369C142.864 39.4091 143.174 39.2197 143.435 38.9688C143.695 38.7131 143.896 38.3958 144.038 38.017L145.658 38.4716C145.487 39.0208 145.201 39.5038 144.798 39.9205C144.396 40.3324 143.899 40.6544 143.307 40.8864C142.715 41.1136 142.05 41.2273 141.311 41.2273ZM152.81 41.2273C151.787 41.2273 150.906 40.9858 150.168 40.5028C149.429 40.0199 148.861 39.3546 148.463 38.5071C148.065 37.6596 147.866 36.6913 147.866 35.6023C147.866 34.4943 148.07 33.5166 148.477 32.669C148.889 31.8168 149.462 31.1515 150.196 30.6733C150.935 30.1903 151.796 29.9489 152.781 29.9489C153.548 29.9489 154.24 30.0909 154.855 30.375C155.471 30.6591 155.975 31.0568 156.368 31.5682C156.761 32.0795 157.005 32.6761 157.099 33.358H155.423C155.295 32.8608 155.011 32.4205 154.571 32.0369C154.135 31.6487 153.548 31.4545 152.81 31.4545C152.156 31.4545 151.583 31.625 151.091 31.9659C150.603 32.3021 150.222 32.7779 149.947 33.3935C149.678 34.0043 149.543 34.7216 149.543 35.5455C149.543 36.3883 149.675 37.1222 149.94 37.7472C150.21 38.3722 150.589 38.8575 151.077 39.2031C151.569 39.5488 152.147 39.7216 152.81 39.7216C153.245 39.7216 153.641 39.6458 153.996 39.4943C154.351 39.3428 154.652 39.125 154.898 38.8409C155.144 38.5568 155.319 38.2159 155.423 37.8182H157.099C157.005 38.4621 156.77 39.0421 156.396 39.5582C156.027 40.0696 155.537 40.4768 154.926 40.7798C154.32 41.0781 153.615 41.2273 152.81 41.2273ZM164.294 30.0909V31.5114H158.641V30.0909H164.294ZM160.288 27.4773H161.964V37.875C161.964 38.3485 162.033 38.7036 162.17 38.9403C162.313 39.1723 162.492 39.3286 162.71 39.4091C162.933 39.4848 163.167 39.5227 163.413 39.5227C163.598 39.5227 163.75 39.5133 163.868 39.4943C163.986 39.4706 164.081 39.4517 164.152 39.4375L164.493 40.9432C164.379 40.9858 164.221 41.0284 164.017 41.071C163.813 41.1184 163.555 41.142 163.243 41.142C162.769 41.142 162.305 41.0402 161.851 40.8366C161.401 40.633 161.027 40.3229 160.729 39.9062C160.435 39.4896 160.288 38.964 160.288 38.3295V27.4773ZM166.815 41V30.0909H168.435V31.7386H168.548C168.747 31.1989 169.107 30.7609 169.628 30.4247C170.149 30.0885 170.736 29.9205 171.389 29.9205C171.512 29.9205 171.666 29.9228 171.851 29.9276C172.036 29.9323 172.175 29.9394 172.27 29.9489V31.6534C172.213 31.6392 172.083 31.6179 171.879 31.5895C171.68 31.5563 171.47 31.5398 171.247 31.5398C170.717 31.5398 170.243 31.651 169.827 31.8736C169.415 32.0914 169.088 32.3944 168.847 32.7827C168.61 33.1662 168.491 33.6042 168.491 34.0966V41H166.815ZM178.357 41.2273C177.372 41.2273 176.508 40.9929 175.764 40.5241C175.026 40.0554 174.448 39.3996 174.031 38.5568C173.619 37.714 173.413 36.7292 173.413 35.6023C173.413 34.4659 173.619 33.474 174.031 32.6264C174.448 31.7789 175.026 31.1207 175.764 30.652C176.508 30.1832 177.372 29.9489 178.357 29.9489C179.341 29.9489 180.203 30.1832 180.942 30.652C181.685 31.1207 182.263 31.7789 182.675 32.6264C183.091 33.474 183.3 34.4659 183.3 35.6023C183.3 36.7292 183.091 37.714 182.675 38.5568C182.263 39.3996 181.685 40.0554 180.942 40.5241C180.203 40.9929 179.341 41.2273 178.357 41.2273ZM178.357 39.7216C179.105 39.7216 179.72 39.5298 180.203 39.1463C180.686 38.7628 181.044 38.2585 181.276 37.6335C181.508 37.0085 181.624 36.3314 181.624 35.6023C181.624 34.8731 181.508 34.1937 181.276 33.5639C181.044 32.9342 180.686 32.4252 180.203 32.0369C179.72 31.6487 179.105 31.4545 178.357 31.4545C177.608 31.4545 176.993 31.6487 176.51 32.0369C176.027 32.4252 175.67 32.9342 175.438 33.5639C175.205 34.1937 175.089 34.8731 175.089 35.6023C175.089 36.3314 175.205 37.0085 175.438 37.6335C175.67 38.2585 176.027 38.7628 176.51 39.1463C176.993 39.5298 177.608 39.7216 178.357 39.7216ZM187.534 34.4375V41H185.858V30.0909H187.478V31.7955H187.62C187.875 31.2415 188.264 30.7964 188.784 30.4602C189.305 30.1193 189.978 29.9489 190.801 29.9489C191.54 29.9489 192.186 30.1004 192.74 30.4034C193.294 30.7017 193.725 31.1562 194.033 31.767C194.341 32.3731 194.495 33.1402 194.495 34.0682V41H192.819V34.1818C192.819 33.3248 192.596 32.6572 192.151 32.179C191.706 31.696 191.095 31.4545 190.319 31.4545C189.783 31.4545 189.305 31.5705 188.884 31.8026C188.467 32.0346 188.138 32.3731 187.897 32.8182C187.655 33.2633 187.534 33.803 187.534 34.4375ZM197.558 41V30.0909H199.234V41H197.558ZM198.41 28.2727C198.083 28.2727 197.801 28.1615 197.565 27.9389C197.333 27.7164 197.217 27.4489 197.217 27.1364C197.217 26.8239 197.333 26.5563 197.565 26.3338C197.801 26.1113 198.083 26 198.41 26C198.737 26 199.016 26.1113 199.248 26.3338C199.485 26.5563 199.603 26.8239 199.603 27.1364C199.603 27.4489 199.485 27.7164 199.248 27.9389C199.016 28.1615 198.737 28.2727 198.41 28.2727ZM206.735 41.2273C205.713 41.2273 204.832 40.9858 204.093 40.5028C203.355 40.0199 202.787 39.3546 202.389 38.5071C201.991 37.6596 201.792 36.6913 201.792 35.6023C201.792 34.4943 201.996 33.5166 202.403 32.669C202.815 31.8168 203.388 31.1515 204.122 30.6733C204.86 30.1903 205.722 29.9489 206.707 29.9489C207.474 29.9489 208.165 30.0909 208.781 30.375C209.396 30.6591 209.901 31.0568 210.294 31.5682C210.687 32.0795 210.931 32.6761 211.025 33.358H209.349C209.221 32.8608 208.937 32.4205 208.497 32.0369C208.061 31.6487 207.474 31.4545 206.735 31.4545C206.082 31.4545 205.509 31.625 205.017 31.9659C204.529 32.3021 204.148 32.7779 203.873 33.3935C203.603 34.0043 203.468 34.7216 203.468 35.5455C203.468 36.3883 203.601 37.1222 203.866 37.7472C204.136 38.3722 204.515 38.8575 205.002 39.2031C205.495 39.5488 206.073 39.7216 206.735 39.7216C207.171 39.7216 207.566 39.6458 207.922 39.4943C208.277 39.3428 208.577 39.125 208.824 38.8409C209.07 38.5568 209.245 38.2159 209.349 37.8182H211.025C210.931 38.4621 210.696 39.0421 210.322 39.5582C209.953 40.0696 209.463 40.4768 208.852 40.7798C208.246 41.0781 207.54 41.2273 206.735 41.2273ZM221.203 32.5341L219.697 32.9602C219.602 32.7093 219.463 32.4654 219.278 32.2287C219.098 31.9872 218.852 31.7884 218.539 31.6321C218.227 31.4759 217.827 31.3977 217.339 31.3977C216.672 31.3977 216.115 31.5516 215.67 31.8594C215.23 32.1624 215.01 32.5483 215.01 33.017C215.01 33.4337 215.161 33.7628 215.464 34.0043C215.767 34.2457 216.241 34.447 216.885 34.608L218.504 35.0057C219.479 35.2424 220.206 35.6046 220.684 36.0923C221.163 36.5753 221.402 37.1979 221.402 37.9602C221.402 38.5852 221.222 39.1439 220.862 39.6364C220.507 40.1288 220.01 40.517 219.37 40.8011C218.731 41.0852 217.988 41.2273 217.14 41.2273C216.028 41.2273 215.107 40.9858 214.377 40.5028C213.648 40.0199 213.187 39.3144 212.993 38.3864L214.583 37.9886C214.735 38.5758 215.021 39.0161 215.443 39.3097C215.869 39.6032 216.425 39.75 217.112 39.75C217.893 39.75 218.513 39.5843 218.973 39.2528C219.437 38.9167 219.669 38.5142 219.669 38.0455C219.669 37.6667 219.536 37.3494 219.271 37.0938C219.006 36.8333 218.599 36.6392 218.049 36.5114L216.231 36.0852C215.232 35.8485 214.498 35.4815 214.029 34.9844C213.565 34.4825 213.333 33.8551 213.333 33.1023C213.333 32.4867 213.506 31.9422 213.852 31.4688C214.202 30.9953 214.678 30.6236 215.279 30.3537C215.886 30.0838 216.572 29.9489 217.339 29.9489C218.419 29.9489 219.266 30.1856 219.882 30.6591C220.502 31.1326 220.942 31.7576 221.203 32.5341Z" fill="white"/>
<path d="M36 64C55.8823 64 72 49.6731 72 32C72 14.3269 55.8823 0 36 0C16.1178 0 0 14.3269 0 32C0 49.6731 16.1178 64 36 64Z" fill="#EA8953"/>
<path opacity="0.1" d="M49.2053 13.8848L48.8232 13.5409C48.5311 13.332 48.1639 13.2174 47.7743 13.2174H24.565C23.5985 13.2174 22.8119 13.9185 22.8119 14.7948V48.7189C22.8119 49.1705 23.0291 49.5819 23.3738 49.8717L39.0741 64C56.6039 62.7376 70.5808 50.17 72 34.3994L49.2278 13.9118L49.2053 13.8848Z" fill="black"/>
<path d="M47.4571 13.2174H24.5429C23.5869 13.2174 22.8119 13.9329 22.8119 14.8158V49.1842C22.8119 50.067 23.5869 50.7826 24.5429 50.7826H47.4571C48.4131 50.7826 49.1881 50.0671 49.1881 49.1842V14.8158C49.1881 13.9331 48.4132 13.2174 47.4571 13.2174Z" fill="#EBF0F3"/>
<path d="M46.3721 16.9622H25.6256V45.5277H46.3721V16.9622Z" fill="#64798A"/>
<path d="M38.0341 15.5754H33.9662C33.7589 15.5754 33.5911 15.4264 33.5911 15.242C33.5911 15.0578 33.7589 14.9086 33.9662 14.9086H38.034C38.2412 14.9086 38.4091 15.0576 38.4091 15.242C38.4091 15.4264 38.2414 15.5754 38.0341 15.5754Z" fill="#64798A"/>
<path d="M31.981 15.5752C32.1881 15.5752 32.356 15.426 32.356 15.242C32.356 15.0579 32.1881 14.9087 31.981 14.9087C31.7739 14.9087 31.6061 15.0579 31.6061 15.242C31.6061 15.426 31.7739 15.5752 31.981 15.5752Z" fill="#64798A"/>
<path d="M36.0002 49.325C35.0345 49.325 34.2485 48.6264 34.2485 47.7683C34.2485 46.9094 35.0345 46.2108 36.0002 46.2108C36.966 46.2108 37.752 46.9094 37.752 47.7683C37.752 48.6264 36.966 49.325 36.0002 49.325ZM36.0002 46.8775C35.448 46.8775 34.9986 47.2773 34.9986 47.7683C34.9986 48.2591 35.448 48.6583 36.0002 48.6583C36.5526 48.6583 37.0018 48.2593 37.0018 47.7683C37.0018 47.2773 36.5526 46.8775 36.0002 46.8775Z" fill="#64798A"/>
<path d="M35.6435 23.6522C32.4939 23.6522 29.9406 25.8979 29.9406 28.668C29.9406 30.8499 31.5274 32.7011 33.7391 33.3914L35.6435 28.668V23.6522Z" fill="#FCD462"/>
<path d="M41.3465 24.4836C40.3871 22.7456 38.5123 21.5652 36.3564 21.5652V27.1304L41.3465 24.4836Z" fill="#44C4A1"/>
<path d="M34.2178 34.4579C34.8753 34.6644 35.5798 34.7826 36.3171 34.7826C38.8798 34.7826 41.0803 33.4232 42.0594 31.4764L36.3171 29.2174L34.2178 34.4579Z" fill="#E1E6E9"/>
<path d="M41.374 25.7391L36.3564 27.9911L41.5654 29.913C41.8806 29.3252 42.0594 28.676 42.0594 27.9911C42.0593 27.1758 41.8109 26.4089 41.374 25.7391Z" fill="#E56353"/>
<path d="M29.9406 39.6522H27.0891V40.3479H29.9406V39.6522Z" fill="#E1E6E9"/>
<path d="M34.9307 39.6522H32.0792V40.3479H34.9307V39.6522Z" fill="#FCD462"/>
<path d="M39.9208 39.6522H37.0693V40.3479H39.9208V39.6522Z" fill="#44C4A1"/>
<path d="M44.9109 39.6522H42.0594V40.3479H44.9109V39.6522Z" fill="#E56353"/>
</svg>
